<svg xmlns="http://www.w3.org/2000/svg" aria-hidden="true"><defs>
<symbol id="icon-fluent_phone-24-regular" viewBox="0 0 32 32">
<path fill="#f3c653" style="fill: var(--color1, #f3c653)" d="M21 2.667c0.796 0 1.559 0.316 2.121 0.879s0.879 1.326 0.879 2.121v20.667c0 0.796-0.316 1.559-0.879 2.121s-1.326 0.879-2.121 0.879h-10c-0.796 0-1.559-0.316-2.121-0.879s-0.879-1.326-0.879-2.121v-20.667c0-0.796 0.316-1.559 0.879-2.121s1.326-0.879 2.121-0.879h10zM21 4.667h-10c-0.265 0-0.52 0.105-0.707 0.293s-0.293 0.442-0.293 0.707v20.667c0 0.552 0.448 1 1 1h10c0.265 0 0.52-0.105 0.707-0.293s0.293-0.442 0.293-0.707v-20.667c0-0.265-0.105-0.52-0.293-0.707s-0.442-0.293-0.707-0.293zM17.665 23.333c0.265-0 0.52 0.105 0.707 0.292s0.293 0.441 0.294 0.707-0.105 0.52-0.292 0.707c-0.187 0.188-0.441 0.293-0.707 0.294l-3.333 0.005c-0.265 0-0.52-0.105-0.707-0.292s-0.293-0.441-0.294-0.707c-0-0.265 0.105-0.52 0.292-0.707s0.441-0.293 0.707-0.294l3.333-0.005z"></path>
</symbol>



<symbol id="icon-Vector" viewBox="0 0 53 32">
<path fill="#c79002" style="fill: var(--color1, #c79002)" d="M1.211 2.504c0.75-0.75 1.767-1.171 2.828-1.171s2.078 0.421 2.828 1.171l19.8 19.8 19.8-19.8c0.754-0.729 1.765-1.132 2.814-1.123s2.052 0.43 2.794 1.171c0.742 0.742 1.162 1.745 1.171 2.794s-0.394 2.059-1.123 2.814l-22.628 22.628c-0.75 0.75-1.767 1.171-2.828 1.171s-2.078-0.421-2.828-1.171l-22.628-22.628c-0.75-0.75-1.171-1.767-1.171-2.828s0.421-2.078 1.171-2.828z"></path>
</symbol>
<symbol id="icon-close-modal-tabel" viewBox="0 0 32 32">
<path stroke-linejoin="round" stroke-linecap="round" stroke-miterlimit="4" stroke-width="2" d="M27.429 3.428l-24 24"></path>
<path stroke-linejoin="round" stroke-linecap="round" stroke-miterlimit="4" stroke-width="2" d="M3.429 3.428l24 24"></path>
</symbol>
</defs></svg>