<svg xmlns="http://www.w3.org/2000/svg" aria-hidden="true"><defs>
<symbol id="icon-fluent_phone-24-regular" viewBox="0 0 32 32">
<path fill="#f3c653" style="fill: var(--color1, #f3c653)" d="M21 2.667c0.796 0 1.559 0.316 2.121 0.879s0.879 1.326 0.879 2.121v20.667c0 0.796-0.316 1.559-0.879 2.121s-1.326 0.879-2.121 0.879h-10c-0.796 0-1.559-0.316-2.121-0.879s-0.879-1.326-0.879-2.121v-20.667c0-0.796 0.316-1.559 0.879-2.121s1.326-0.879 2.121-0.879h10zM21 4.667h-10c-0.265 0-0.52 0.105-0.707 0.293s-0.293 0.442-0.293 0.707v20.667c0 0.552 0.448 1 1 1h10c0.265 0 0.52-0.105 0.707-0.293s0.293-0.442 0.293-0.707v-20.667c0-0.265-0.105-0.52-0.293-0.707s-0.442-0.293-0.707-0.293zM17.665 23.333c0.265-0 0.52 0.105 0.707 0.292s0.293 0.441 0.294 0.707-0.105 0.52-0.292 0.707c-0.187 0.188-0.441 0.293-0.707 0.294l-3.333 0.005c-0.265 0-0.52-0.105-0.707-0.292s-0.293-0.441-0.294-0.707c-0-0.265 0.105-0.52 0.292-0.707s0.441-0.293 0.707-0.294l3.333-0.005z"></path>
</symbol>



<symbol id="icon-appearance-modal" viewBox="0 0 32 32">
<path fill="#c79002" style="fill: var(--color1, #c79002)" d="M3.272 10.586c0.375-0.375 0.884-0.586 1.414-0.586s1.039 0.211 1.414 0.586l9.9 9.9 9.9-9.9c0.377-0.364 0.882-0.566 1.407-0.561s1.026 0.215 1.397 0.586c0.371 0.371 0.581 0.872 0.586 1.397s-0.197 1.030-0.561 1.407l-11.314 11.314c-0.375 0.375-0.884 0.586-1.414 0.586s-1.039-0.211-1.414-0.586l-11.314-11.314c-0.375-0.375-0.586-0.884-0.586-1.414s0.211-1.039 0.586-1.414z"></path>
</symbol>
<symbol id="icon-close-modal-tabel" viewBox="0 0 32 32">
<path stroke-linejoin="round" stroke-linecap="round" stroke-miterlimit="4" stroke-width="2" d="M27.429 3.428l-24 24"></path>
<path stroke-linejoin="round" stroke-linecap="round" stroke-miterlimit="4" stroke-width="2" d="M3.429 3.428l24 24"></path>
</symbol>
</defs></svg>