<svg xmlns="http://www.w3.org/2000/svg" aria-hidden="true"><defs>
<symbol id="icon-fluent_phone-24-regular" viewBox="0 0 32 32">
<path fill="#f3c653" style="fill: var(--color1, #f3c653)" d="M21 2.667c0.796 0 1.559 0.316 2.121 0.879s0.879 1.326 0.879 2.121v20.667c0 0.796-0.316 1.559-0.879 2.121s-1.326 0.879-2.121 0.879h-10c-0.796 0-1.559-0.316-2.121-0.879s-0.879-1.326-0.879-2.121v-20.667c0-0.796 0.316-1.559 0.879-2.121s1.326-0.879 2.121-0.879h10zM21 4.667h-10c-0.265 0-0.52 0.105-0.707 0.293s-0.293 0.442-0.293 0.707v20.667c0 0.552 0.448 1 1 1h10c0.265 0 0.52-0.105 0.707-0.293s0.293-0.442 0.293-0.707v-20.667c0-0.265-0.105-0.52-0.293-0.707s-0.442-0.293-0.707-0.293zM17.665 23.333c0.265-0 0.52 0.105 0.707 0.292s0.293 0.441 0.294 0.707-0.105 0.52-0.292 0.707c-0.187 0.188-0.441 0.293-0.707 0.294l-3.333 0.005c-0.265 0-0.52-0.105-0.707-0.292s-0.293-0.441-0.294-0.707c-0-0.265 0.105-0.52 0.292-0.707s0.441-0.293 0.707-0.294l3.333-0.005z"></path>
</symbol>
<symbol id="icon-cil_arrow-right" viewBox="0 0 32 32">
<path fill="#fff" style="fill: var(--color1, #fff)" d="M22.492 7.586l-1.414 1.414 6 6h-26.078v2h26.078l-6 6 1.414 1.414 8.414-8.414-8.414-8.414z"></path>
</symbol>
<symbol id="icon-details-arrow-left" viewBox="0 0 32 32">
<path fill="#fff" style="fill: var(--color1, #fff)" d="M31.083 15h-26.078l6-6-1.414-1.414-8.414 8.414 8.414 8.414 1.414-1.414-6-6h26.078v-2z"></path>
</symbol>
<symbol id="icon-MIMIHO" viewBox="0 0 138 32">
<path fill="#fff" style="fill: var(--color1, #fff)" d="M11.354 1.095c1.322 0 2.442 0.467 3.362 1.401 0.934 0.934 1.401 2.062 1.401 3.384v26.121h-3.19v-26.401c0-0.445-0.151-0.819-0.453-1.121s-0.675-0.453-1.121-0.453c-0.445 0-0.826 0.151-1.142 0.453-0.302 0.302-0.453 0.675-0.453 1.121v26.401h-3.19v-26.401c0-0.445-0.151-0.819-0.453-1.121s-0.675-0.453-1.121-0.453c-0.445 0-0.826 0.151-1.142 0.453-0.302 0.302-0.453 0.675-0.453 1.121v26.401h-3.19v-26.121c0-1.322 0.467-2.45 1.401-3.384s2.062-1.401 3.384-1.401c1.178 0 2.234 0.417 3.168 1.25 0.934-0.833 1.997-1.25 3.19-1.25zM31.987 32v-30.905h3.19v30.905h-3.19zM62.19 1.095c1.322 0 2.442 0.467 3.362 1.401 0.934 0.934 1.401 2.062 1.401 3.384v26.121h-3.19v-26.401c0-0.445-0.151-0.819-0.453-1.121s-0.675-0.453-1.121-0.453c-0.445 0-0.826 0.151-1.142 0.453-0.302 0.302-0.453 0.675-0.453 1.121v26.401h-3.19v-26.401c0-0.445-0.151-0.819-0.453-1.121s-0.675-0.453-1.121-0.453c-0.445 0-0.826 0.151-1.142 0.453-0.302 0.302-0.453 0.675-0.453 1.121v26.401h-3.19v-26.121c0-1.322 0.467-2.45 1.401-3.384s2.062-1.401 3.384-1.401c1.178 0 2.234 0.417 3.168 1.25 0.934-0.833 1.997-1.25 3.19-1.25zM82.823 32v-30.905h3.19v30.905h-3.19zM108.241 15.103v-14.009h3.189v30.905h-3.189v-13.987h-3.168v13.987h-3.19v-30.905h3.19v14.009h3.168zM128.724 2.496c0.935-0.934 2.062-1.401 3.384-1.401s2.442 0.467 3.362 1.401c0.934 0.934 1.4 2.062 1.4 3.384v21.358c0 1.322-0.467 2.45-1.4 3.384-0.92 0.919-2.040 1.379-3.362 1.379s-2.45-0.46-3.384-1.379c-0.934-0.934-1.4-2.062-1.4-3.384v-21.358c0-1.322 0.467-2.45 1.4-3.384zM133.681 27.496v-21.897c0-0.445-0.15-0.819-0.452-1.121-0.301-0.302-0.675-0.453-1.12-0.453-0.446 0-0.826 0.151-1.142 0.453-0.302 0.302-0.454 0.675-0.454 1.121v21.897c0 0.445 0.151 0.826 0.454 1.142 0.316 0.302 0.696 0.453 1.142 0.453 0.445 0 0.819-0.151 1.12-0.453 0.302-0.316 0.452-0.697 0.452-1.142z"></path>
</symbol>



</defs></svg>